<mxfile host="app.diagrams.net" modified="2024-08-07T02:02:30.851Z" agent="Mozilla/5.0 (Windows NT 10.0; Win64; x64) AppleWebKit/537.36 (KHTML, like Gecko) Chrome/127.0.0.0 Safari/537.36" etag="t5hQKBs5LZtzxPxX1IFx" version="24.7.1" type="github">
  <diagram name="Page-1" id="OyyAvdcgK5_7pgf5Ddxh">
    <mxGraphModel dx="1720" dy="751" grid="1" gridSize="10" guides="1" tooltips="1" connect="1" arrows="1" fold="1" page="1" pageScale="1" pageWidth="850" pageHeight="1100" math="0" shadow="0">
      <root>
        <mxCell id="0" />
        <mxCell id="1" parent="0" />
        <mxCell id="GHodZ8dbwmzNHnV5Nrv1-1" value="User" style="rounded=1;whiteSpace=wrap;html=1;labelBackgroundColor=none;fillColor=#FAE5C7;strokeColor=#0F8B8D;fontColor=#143642;" parent="1" vertex="1">
          <mxGeometry x="890" y="480" width="190" height="140" as="geometry" />
        </mxCell>
        <mxCell id="GHodZ8dbwmzNHnV5Nrv1-5" value="Profile" style="rounded=1;whiteSpace=wrap;html=1;labelBackgroundColor=none;fillColor=#FAE5C7;strokeColor=#0F8B8D;fontColor=#143642;" parent="1" vertex="1">
          <mxGeometry x="520" y="480" width="120" height="60" as="geometry" />
        </mxCell>
        <mxCell id="GHodZ8dbwmzNHnV5Nrv1-9" value="Has" style="shape=rhombus;perimeter=rhombusPerimeter;whiteSpace=wrap;html=1;align=center;strokeWidth=1;labelBackgroundColor=none;fillColor=#FAE5C7;strokeColor=#0F8B8D;fontColor=#143642;" parent="1" vertex="1">
          <mxGeometry x="690" y="480" width="110" height="60" as="geometry" />
        </mxCell>
        <mxCell id="GHodZ8dbwmzNHnV5Nrv1-17" value="Post" style="rounded=1;arcSize=10;whiteSpace=wrap;html=1;align=center;labelBackgroundColor=none;fillColor=#FAE5C7;strokeColor=#0F8B8D;fontColor=#143642;" parent="1" vertex="1">
          <mxGeometry x="925" y="972.16" width="125" height="60" as="geometry" />
        </mxCell>
        <mxCell id="GHodZ8dbwmzNHnV5Nrv1-18" value="Has" style="shape=rhombus;perimeter=rhombusPerimeter;whiteSpace=wrap;html=1;align=center;strokeWidth=1;labelBackgroundColor=none;fillColor=#FAE5C7;strokeColor=#0F8B8D;fontColor=#143642;" parent="1" vertex="1">
          <mxGeometry x="930" y="812.16" width="110" height="57.84" as="geometry" />
        </mxCell>
        <mxCell id="GHodZ8dbwmzNHnV5Nrv1-19" value="" style="endArrow=none;html=1;rounded=0;labelBackgroundColor=none;strokeColor=#A8201A;fontColor=default;" parent="1" source="GHodZ8dbwmzNHnV5Nrv1-18" target="GHodZ8dbwmzNHnV5Nrv1-1" edge="1">
          <mxGeometry relative="1" as="geometry">
            <mxPoint x="810" y="660" as="sourcePoint" />
            <mxPoint x="970" y="660" as="targetPoint" />
            <Array as="points">
              <mxPoint x="960" y="610" />
            </Array>
          </mxGeometry>
        </mxCell>
        <mxCell id="GHodZ8dbwmzNHnV5Nrv1-20" value="1" style="resizable=0;html=1;whiteSpace=wrap;align=right;verticalAlign=bottom;labelBackgroundColor=none;fillColor=#FAE5C7;strokeColor=#0F8B8D;fontColor=#143642;" parent="GHodZ8dbwmzNHnV5Nrv1-19" connectable="0" vertex="1">
          <mxGeometry x="1" relative="1" as="geometry" />
        </mxCell>
        <mxCell id="GHodZ8dbwmzNHnV5Nrv1-21" value="" style="endArrow=none;html=1;rounded=0;labelBackgroundColor=none;strokeColor=#A8201A;fontColor=default;" parent="1" source="GHodZ8dbwmzNHnV5Nrv1-9" target="GHodZ8dbwmzNHnV5Nrv1-1" edge="1">
          <mxGeometry relative="1" as="geometry">
            <mxPoint x="930" y="600" as="sourcePoint" />
            <mxPoint x="930" y="550" as="targetPoint" />
          </mxGeometry>
        </mxCell>
        <mxCell id="GHodZ8dbwmzNHnV5Nrv1-22" value="1" style="resizable=0;html=1;whiteSpace=wrap;align=right;verticalAlign=bottom;labelBackgroundColor=none;fillColor=#FAE5C7;strokeColor=#0F8B8D;fontColor=#143642;" parent="GHodZ8dbwmzNHnV5Nrv1-21" connectable="0" vertex="1">
          <mxGeometry x="1" relative="1" as="geometry" />
        </mxCell>
        <mxCell id="GHodZ8dbwmzNHnV5Nrv1-23" value="" style="endArrow=none;html=1;rounded=0;labelBackgroundColor=none;strokeColor=#A8201A;fontColor=default;" parent="1" source="GHodZ8dbwmzNHnV5Nrv1-9" target="GHodZ8dbwmzNHnV5Nrv1-5" edge="1">
          <mxGeometry relative="1" as="geometry">
            <mxPoint x="810" y="520" as="sourcePoint" />
            <mxPoint x="640" y="510" as="targetPoint" />
          </mxGeometry>
        </mxCell>
        <mxCell id="GHodZ8dbwmzNHnV5Nrv1-24" value="1" style="resizable=0;html=1;whiteSpace=wrap;align=right;verticalAlign=bottom;labelBackgroundColor=none;fillColor=#FAE5C7;strokeColor=#0F8B8D;fontColor=#143642;" parent="GHodZ8dbwmzNHnV5Nrv1-23" connectable="0" vertex="1">
          <mxGeometry x="1" relative="1" as="geometry" />
        </mxCell>
        <mxCell id="GHodZ8dbwmzNHnV5Nrv1-25" value="" style="endArrow=none;html=1;rounded=0;labelBackgroundColor=none;strokeColor=#A8201A;fontColor=default;" parent="1" source="GHodZ8dbwmzNHnV5Nrv1-18" target="GHodZ8dbwmzNHnV5Nrv1-17" edge="1">
          <mxGeometry relative="1" as="geometry">
            <mxPoint x="975" y="892.16" as="sourcePoint" />
            <mxPoint x="995" y="912.16" as="targetPoint" />
          </mxGeometry>
        </mxCell>
        <mxCell id="GHodZ8dbwmzNHnV5Nrv1-26" value="N" style="resizable=0;html=1;whiteSpace=wrap;align=right;verticalAlign=bottom;labelBackgroundColor=none;fillColor=#FAE5C7;strokeColor=#0F8B8D;fontColor=#143642;" parent="GHodZ8dbwmzNHnV5Nrv1-25" connectable="0" vertex="1">
          <mxGeometry x="1" relative="1" as="geometry" />
        </mxCell>
        <mxCell id="GHodZ8dbwmzNHnV5Nrv1-35" style="rounded=0;orthogonalLoop=1;jettySize=auto;html=1;strokeColor=none;labelBackgroundColor=none;fontColor=default;" parent="1" source="GHodZ8dbwmzNHnV5Nrv1-30" target="GHodZ8dbwmzNHnV5Nrv1-5" edge="1">
          <mxGeometry relative="1" as="geometry" />
        </mxCell>
        <mxCell id="GHodZ8dbwmzNHnV5Nrv1-36" style="edgeStyle=orthogonalEdgeStyle;rounded=0;orthogonalLoop=1;jettySize=auto;html=1;shape=link;strokeColor=none;labelBackgroundColor=none;fontColor=default;" parent="1" source="GHodZ8dbwmzNHnV5Nrv1-30" target="GHodZ8dbwmzNHnV5Nrv1-5" edge="1">
          <mxGeometry relative="1" as="geometry" />
        </mxCell>
        <mxCell id="GHodZ8dbwmzNHnV5Nrv1-37" style="edgeStyle=orthogonalEdgeStyle;rounded=0;orthogonalLoop=1;jettySize=auto;html=1;curved=0;endArrow=none;endFill=0;labelBackgroundColor=none;strokeColor=#A8201A;fontColor=default;" parent="1" source="GHodZ8dbwmzNHnV5Nrv1-30" target="GHodZ8dbwmzNHnV5Nrv1-5" edge="1">
          <mxGeometry relative="1" as="geometry" />
        </mxCell>
        <mxCell id="GHodZ8dbwmzNHnV5Nrv1-30" value="Website" style="ellipse;whiteSpace=wrap;html=1;align=center;labelBackgroundColor=none;fillColor=#FAE5C7;strokeColor=#0F8B8D;fontColor=#143642;" parent="1" vertex="1">
          <mxGeometry x="370" y="360" width="100" height="40" as="geometry" />
        </mxCell>
        <mxCell id="GHodZ8dbwmzNHnV5Nrv1-41" style="edgeStyle=orthogonalEdgeStyle;rounded=0;orthogonalLoop=1;jettySize=auto;html=1;endArrow=none;endFill=0;labelBackgroundColor=none;strokeColor=#A8201A;fontColor=default;" parent="1" source="GHodZ8dbwmzNHnV5Nrv1-32" target="GHodZ8dbwmzNHnV5Nrv1-5" edge="1">
          <mxGeometry relative="1" as="geometry" />
        </mxCell>
        <mxCell id="GHodZ8dbwmzNHnV5Nrv1-32" value="BIo" style="ellipse;whiteSpace=wrap;html=1;align=center;labelBackgroundColor=none;fillColor=#FAE5C7;strokeColor=#0F8B8D;fontColor=#143642;" parent="1" vertex="1">
          <mxGeometry x="375" y="570" width="100" height="40" as="geometry" />
        </mxCell>
        <mxCell id="GHodZ8dbwmzNHnV5Nrv1-43" style="edgeStyle=orthogonalEdgeStyle;rounded=0;orthogonalLoop=1;jettySize=auto;html=1;endArrow=none;endFill=0;labelBackgroundColor=none;strokeColor=#A8201A;fontColor=default;" parent="1" source="GHodZ8dbwmzNHnV5Nrv1-33" target="GHodZ8dbwmzNHnV5Nrv1-5" edge="1">
          <mxGeometry relative="1" as="geometry" />
        </mxCell>
        <mxCell id="GHodZ8dbwmzNHnV5Nrv1-33" value="id" style="ellipse;whiteSpace=wrap;html=1;align=center;fontStyle=4;labelBackgroundColor=none;fillColor=#FAE5C7;strokeColor=#0F8B8D;fontColor=#143642;" parent="1" vertex="1">
          <mxGeometry x="370" y="420" width="100" height="50" as="geometry" />
        </mxCell>
        <mxCell id="GHodZ8dbwmzNHnV5Nrv1-40" style="edgeStyle=orthogonalEdgeStyle;rounded=0;orthogonalLoop=1;jettySize=auto;html=1;endArrow=none;endFill=0;labelBackgroundColor=none;strokeColor=#A8201A;fontColor=default;" parent="1" source="GHodZ8dbwmzNHnV5Nrv1-39" target="GHodZ8dbwmzNHnV5Nrv1-5" edge="1">
          <mxGeometry relative="1" as="geometry" />
        </mxCell>
        <mxCell id="GHodZ8dbwmzNHnV5Nrv1-39" value="Birthday" style="ellipse;whiteSpace=wrap;html=1;align=center;labelBackgroundColor=none;fillColor=#FAE5C7;strokeColor=#0F8B8D;fontColor=#143642;" parent="1" vertex="1">
          <mxGeometry x="375" y="490" width="100" height="40" as="geometry" />
        </mxCell>
        <mxCell id="GHodZ8dbwmzNHnV5Nrv1-45" value="Friend" style="shape=rhombus;perimeter=rhombusPerimeter;whiteSpace=wrap;html=1;align=center;strokeWidth=1;labelBackgroundColor=none;fillColor=#FAE5C7;strokeColor=#0F8B8D;fontColor=#143642;" parent="1" vertex="1">
          <mxGeometry x="1220" y="410" width="90" height="50" as="geometry" />
        </mxCell>
        <mxCell id="GHodZ8dbwmzNHnV5Nrv1-46" value="" style="endArrow=none;html=1;rounded=0;labelBackgroundColor=none;strokeColor=#A8201A;fontColor=default;entryX=1;entryY=0.154;entryDx=0;entryDy=0;entryPerimeter=0;" parent="1" source="GHodZ8dbwmzNHnV5Nrv1-45" target="GHodZ8dbwmzNHnV5Nrv1-1" edge="1">
          <mxGeometry relative="1" as="geometry">
            <mxPoint x="1110" y="340" as="sourcePoint" />
            <mxPoint x="930" y="550" as="targetPoint" />
            <Array as="points">
              <mxPoint x="1265" y="490" />
            </Array>
          </mxGeometry>
        </mxCell>
        <mxCell id="GHodZ8dbwmzNHnV5Nrv1-47" value="1" style="resizable=0;html=1;whiteSpace=wrap;align=right;verticalAlign=bottom;labelBackgroundColor=none;fillColor=#FAE5C7;strokeColor=#0F8B8D;fontColor=#143642;" parent="GHodZ8dbwmzNHnV5Nrv1-46" connectable="0" vertex="1">
          <mxGeometry x="1" relative="1" as="geometry" />
        </mxCell>
        <mxCell id="GHodZ8dbwmzNHnV5Nrv1-50" value="" style="endArrow=none;html=1;rounded=0;labelBackgroundColor=none;strokeColor=#A8201A;fontColor=default;edgeStyle=elbowEdgeStyle;" parent="1" source="GHodZ8dbwmzNHnV5Nrv1-45" target="GHodZ8dbwmzNHnV5Nrv1-1" edge="1">
          <mxGeometry relative="1" as="geometry">
            <mxPoint x="930" y="660" as="sourcePoint" />
            <mxPoint x="1060" y="530" as="targetPoint" />
            <Array as="points">
              <mxPoint x="1010" y="460" />
            </Array>
          </mxGeometry>
        </mxCell>
        <mxCell id="GHodZ8dbwmzNHnV5Nrv1-51" value="N" style="resizable=0;html=1;whiteSpace=wrap;align=right;verticalAlign=bottom;labelBackgroundColor=none;fillColor=#FAE5C7;strokeColor=#0F8B8D;fontColor=#143642;" parent="GHodZ8dbwmzNHnV5Nrv1-50" connectable="0" vertex="1">
          <mxGeometry x="1" relative="1" as="geometry" />
        </mxCell>
        <mxCell id="GHodZ8dbwmzNHnV5Nrv1-52" value="Email" style="ellipse;whiteSpace=wrap;html=1;align=center;labelBackgroundColor=none;fillColor=#FAE5C7;strokeColor=#0F8B8D;fontColor=#143642;" parent="1" vertex="1">
          <mxGeometry x="950" y="330" width="100" height="40" as="geometry" />
        </mxCell>
        <mxCell id="GHodZ8dbwmzNHnV5Nrv1-53" value="id" style="ellipse;whiteSpace=wrap;html=1;align=center;fontStyle=4;labelBackgroundColor=none;fillColor=#FAE5C7;strokeColor=#0F8B8D;fontColor=#143642;" parent="1" vertex="1">
          <mxGeometry x="1050" y="355" width="100" height="50" as="geometry" />
        </mxCell>
        <mxCell id="GHodZ8dbwmzNHnV5Nrv1-54" value="Username" style="ellipse;whiteSpace=wrap;html=1;align=center;labelBackgroundColor=none;fillColor=#FAE5C7;strokeColor=#0F8B8D;fontColor=#143642;" parent="1" vertex="1">
          <mxGeometry x="740" y="340" width="100" height="40" as="geometry" />
        </mxCell>
        <mxCell id="GHodZ8dbwmzNHnV5Nrv1-57" value="Last name" style="ellipse;whiteSpace=wrap;html=1;align=center;labelBackgroundColor=none;fillColor=#FAE5C7;strokeColor=#0F8B8D;fontColor=#143642;" parent="1" vertex="1">
          <mxGeometry x="840" y="330" width="100" height="40" as="geometry" />
        </mxCell>
        <mxCell id="GHodZ8dbwmzNHnV5Nrv1-58" value="First name" style="ellipse;whiteSpace=wrap;html=1;align=center;labelBackgroundColor=none;fillColor=#FAE5C7;strokeColor=#0F8B8D;fontColor=#143642;" parent="1" vertex="1">
          <mxGeometry x="700" y="390" width="100" height="40" as="geometry" />
        </mxCell>
        <mxCell id="GHodZ8dbwmzNHnV5Nrv1-59" value="Password" style="ellipse;whiteSpace=wrap;html=1;align=center;labelBackgroundColor=none;fillColor=#FAE5C7;strokeColor=#0F8B8D;fontColor=#143642;" parent="1" vertex="1">
          <mxGeometry x="1150" y="340" width="100" height="40" as="geometry" />
        </mxCell>
        <mxCell id="GHodZ8dbwmzNHnV5Nrv1-61" value="" style="endArrow=none;html=1;rounded=0;strokeColor=#A8201A;fontColor=#143642;fillColor=#FAE5C7;" parent="1" source="GHodZ8dbwmzNHnV5Nrv1-1" target="GHodZ8dbwmzNHnV5Nrv1-59" edge="1">
          <mxGeometry relative="1" as="geometry">
            <mxPoint x="780" y="580" as="sourcePoint" />
            <mxPoint x="940" y="580" as="targetPoint" />
          </mxGeometry>
        </mxCell>
        <mxCell id="GHodZ8dbwmzNHnV5Nrv1-62" value="" style="endArrow=none;html=1;rounded=0;strokeColor=#A8201A;fontColor=#143642;fillColor=#FAE5C7;" parent="1" source="GHodZ8dbwmzNHnV5Nrv1-1" target="GHodZ8dbwmzNHnV5Nrv1-53" edge="1">
          <mxGeometry relative="1" as="geometry">
            <mxPoint x="1008" y="490" as="sourcePoint" />
            <mxPoint x="1030" y="360" as="targetPoint" />
          </mxGeometry>
        </mxCell>
        <mxCell id="GHodZ8dbwmzNHnV5Nrv1-63" value="" style="endArrow=none;html=1;rounded=0;strokeColor=#A8201A;fontColor=#143642;fillColor=#FAE5C7;" parent="1" source="GHodZ8dbwmzNHnV5Nrv1-1" target="GHodZ8dbwmzNHnV5Nrv1-57" edge="1">
          <mxGeometry relative="1" as="geometry">
            <mxPoint x="982" y="490" as="sourcePoint" />
            <mxPoint x="1021" y="385" as="targetPoint" />
          </mxGeometry>
        </mxCell>
        <mxCell id="GHodZ8dbwmzNHnV5Nrv1-64" value="" style="endArrow=none;html=1;rounded=0;strokeColor=#A8201A;fontColor=#143642;fillColor=#FAE5C7;" parent="1" source="GHodZ8dbwmzNHnV5Nrv1-1" target="GHodZ8dbwmzNHnV5Nrv1-52" edge="1">
          <mxGeometry relative="1" as="geometry">
            <mxPoint x="992" y="500" as="sourcePoint" />
            <mxPoint x="1031" y="395" as="targetPoint" />
          </mxGeometry>
        </mxCell>
        <mxCell id="GHodZ8dbwmzNHnV5Nrv1-65" value="" style="endArrow=none;html=1;rounded=0;strokeColor=#A8201A;fontColor=#143642;fillColor=#FAE5C7;" parent="1" source="GHodZ8dbwmzNHnV5Nrv1-1" target="GHodZ8dbwmzNHnV5Nrv1-54" edge="1">
          <mxGeometry relative="1" as="geometry">
            <mxPoint x="1002" y="510" as="sourcePoint" />
            <mxPoint x="1041" y="405" as="targetPoint" />
          </mxGeometry>
        </mxCell>
        <mxCell id="GHodZ8dbwmzNHnV5Nrv1-67" value="" style="endArrow=none;html=1;rounded=0;strokeColor=#A8201A;fontColor=#143642;fillColor=#FAE5C7;" parent="1" source="GHodZ8dbwmzNHnV5Nrv1-1" target="GHodZ8dbwmzNHnV5Nrv1-58" edge="1">
          <mxGeometry relative="1" as="geometry">
            <mxPoint x="938" y="490" as="sourcePoint" />
            <mxPoint x="758" y="309" as="targetPoint" />
          </mxGeometry>
        </mxCell>
        <mxCell id="GHodZ8dbwmzNHnV5Nrv1-68" value="id" style="ellipse;whiteSpace=wrap;html=1;align=center;fontStyle=4;labelBackgroundColor=none;fillColor=#FAE5C7;strokeColor=#0F8B8D;fontColor=#143642;" parent="1" vertex="1">
          <mxGeometry x="815" y="1160" width="100" height="50" as="geometry" />
        </mxCell>
        <mxCell id="GHodZ8dbwmzNHnV5Nrv1-69" value="" style="endArrow=none;html=1;rounded=0;strokeColor=#A8201A;fontColor=#143642;fillColor=#FAE5C7;" parent="1" source="GHodZ8dbwmzNHnV5Nrv1-17" target="GHodZ8dbwmzNHnV5Nrv1-68" edge="1">
          <mxGeometry relative="1" as="geometry">
            <mxPoint x="1029" y="742.16" as="sourcePoint" />
            <mxPoint x="900.4568832003611" y="1075.6428725330281" as="targetPoint" />
          </mxGeometry>
        </mxCell>
        <mxCell id="GHodZ8dbwmzNHnV5Nrv1-71" value="Content" style="ellipse;whiteSpace=wrap;html=1;align=center;labelBackgroundColor=none;fillColor=#FAE5C7;strokeColor=#0F8B8D;fontColor=#143642;" parent="1" vertex="1">
          <mxGeometry x="940" y="1180" width="100" height="40" as="geometry" />
        </mxCell>
        <mxCell id="GHodZ8dbwmzNHnV5Nrv1-72" value="Visibility" style="ellipse;whiteSpace=wrap;html=1;align=center;labelBackgroundColor=none;fillColor=#FAE5C7;strokeColor=#0F8B8D;fontColor=#143642;" parent="1" vertex="1">
          <mxGeometry x="1080" y="1170" width="100" height="40" as="geometry" />
        </mxCell>
        <mxCell id="GHodZ8dbwmzNHnV5Nrv1-73" value="Media" style="rounded=1;arcSize=10;whiteSpace=wrap;html=1;align=center;strokeColor=#0F8B8D;fontColor=#143642;fillColor=#FAE5C7;" parent="1" vertex="1">
          <mxGeometry x="515" y="972.16" width="120" height="60" as="geometry" />
        </mxCell>
        <mxCell id="GHodZ8dbwmzNHnV5Nrv1-75" value="Has" style="shape=rhombus;perimeter=rhombusPerimeter;whiteSpace=wrap;html=1;align=center;strokeWidth=1;labelBackgroundColor=none;fillColor=#FAE5C7;strokeColor=#0F8B8D;fontColor=#143642;" parent="1" vertex="1">
          <mxGeometry x="705" y="972.16" width="110" height="60" as="geometry" />
        </mxCell>
        <mxCell id="GHodZ8dbwmzNHnV5Nrv1-77" value="" style="endArrow=none;html=1;rounded=0;labelBackgroundColor=none;strokeColor=#A8201A;fontColor=default;" parent="1" source="GHodZ8dbwmzNHnV5Nrv1-75" target="GHodZ8dbwmzNHnV5Nrv1-17" edge="1">
          <mxGeometry relative="1" as="geometry">
            <mxPoint x="834" y="773.16" as="sourcePoint" />
            <mxPoint x="925" y="774.16" as="targetPoint" />
          </mxGeometry>
        </mxCell>
        <mxCell id="GHodZ8dbwmzNHnV5Nrv1-78" value="1" style="resizable=0;html=1;whiteSpace=wrap;align=right;verticalAlign=bottom;labelBackgroundColor=none;fillColor=#FAE5C7;strokeColor=#0F8B8D;fontColor=#143642;" parent="GHodZ8dbwmzNHnV5Nrv1-77" connectable="0" vertex="1">
          <mxGeometry x="1" relative="1" as="geometry" />
        </mxCell>
        <mxCell id="GHodZ8dbwmzNHnV5Nrv1-79" value="" style="endArrow=none;html=1;rounded=0;labelBackgroundColor=none;strokeColor=#A8201A;fontColor=default;" parent="1" source="GHodZ8dbwmzNHnV5Nrv1-75" target="GHodZ8dbwmzNHnV5Nrv1-73" edge="1">
          <mxGeometry relative="1" as="geometry">
            <mxPoint x="995" y="922.16" as="sourcePoint" />
            <mxPoint x="995" y="992.16" as="targetPoint" />
          </mxGeometry>
        </mxCell>
        <mxCell id="GHodZ8dbwmzNHnV5Nrv1-80" value="N" style="resizable=0;html=1;whiteSpace=wrap;align=right;verticalAlign=bottom;labelBackgroundColor=none;fillColor=#FAE5C7;strokeColor=#0F8B8D;fontColor=#143642;" parent="GHodZ8dbwmzNHnV5Nrv1-79" connectable="0" vertex="1">
          <mxGeometry x="1" relative="1" as="geometry" />
        </mxCell>
        <mxCell id="GHodZ8dbwmzNHnV5Nrv1-81" value="File" style="ellipse;whiteSpace=wrap;html=1;align=center;strokeColor=#0F8B8D;fontColor=#143642;fillColor=#FAE5C7;" parent="1" vertex="1">
          <mxGeometry x="395" y="902.16" width="100" height="40" as="geometry" />
        </mxCell>
        <mxCell id="GHodZ8dbwmzNHnV5Nrv1-83" value="" style="endArrow=none;html=1;rounded=0;strokeColor=#A8201A;fontColor=#143642;fillColor=#FAE5C7;" parent="1" source="GHodZ8dbwmzNHnV5Nrv1-73" target="GHodZ8dbwmzNHnV5Nrv1-81" edge="1">
          <mxGeometry relative="1" as="geometry">
            <mxPoint x="805" y="1062.16" as="sourcePoint" />
            <mxPoint x="493.2095252512768" y="953.6728928300157" as="targetPoint" />
          </mxGeometry>
        </mxCell>
        <mxCell id="GHodZ8dbwmzNHnV5Nrv1-86" value="id" style="ellipse;whiteSpace=wrap;html=1;align=center;fontStyle=4;labelBackgroundColor=none;fillColor=#FAE5C7;strokeColor=#0F8B8D;fontColor=#143642;" parent="1" vertex="1">
          <mxGeometry x="525" y="912.16" width="100" height="50" as="geometry" />
        </mxCell>
        <mxCell id="GHodZ8dbwmzNHnV5Nrv1-87" value="" style="endArrow=none;html=1;rounded=0;strokeColor=#A8201A;fontColor=#143642;fillColor=#FAE5C7;" parent="1" source="GHodZ8dbwmzNHnV5Nrv1-73" target="GHodZ8dbwmzNHnV5Nrv1-86" edge="1">
          <mxGeometry relative="1" as="geometry">
            <mxPoint x="700" y="992.16" as="sourcePoint" />
            <mxPoint x="588" y="862.16" as="targetPoint" />
          </mxGeometry>
        </mxCell>
        <mxCell id="GHodZ8dbwmzNHnV5Nrv1-89" value="" style="endArrow=none;html=1;rounded=0;strokeColor=#A8201A;fontColor=#143642;fillColor=#FAE5C7;entryX=0.75;entryY=1;entryDx=0;entryDy=0;" parent="1" source="GHodZ8dbwmzNHnV5Nrv1-72" target="GHodZ8dbwmzNHnV5Nrv1-17" edge="1">
          <mxGeometry relative="1" as="geometry">
            <mxPoint x="1082.9157987435956" y="1084.2165864791716" as="sourcePoint" />
            <mxPoint x="1050" y="1022.16" as="targetPoint" />
          </mxGeometry>
        </mxCell>
        <mxCell id="GHodZ8dbwmzNHnV5Nrv1-96" value="Comment" style="shape=associativeEntity;whiteSpace=wrap;html=1;align=center;strokeColor=#0F8B8D;fontColor=#143642;fillColor=#FAE5C7;" parent="1" vertex="1">
          <mxGeometry x="1075" y="812.16" width="140" height="60" as="geometry" />
        </mxCell>
        <mxCell id="GHodZ8dbwmzNHnV5Nrv1-105" value="" style="edgeStyle=orthogonalEdgeStyle;fontSize=12;html=1;endArrow=ERzeroToMany;startArrow=ERmandOne;rounded=0;strokeColor=#A8201A;fontColor=#143642;fillColor=#FAE5C7;" parent="1" source="GHodZ8dbwmzNHnV5Nrv1-1" target="GHodZ8dbwmzNHnV5Nrv1-96" edge="1">
          <mxGeometry width="100" height="100" relative="1" as="geometry">
            <mxPoint x="980" y="830" as="sourcePoint" />
            <mxPoint x="1080" y="730" as="targetPoint" />
            <Array as="points">
              <mxPoint x="1120" y="540" />
            </Array>
          </mxGeometry>
        </mxCell>
        <mxCell id="GHodZ8dbwmzNHnV5Nrv1-106" value="" style="edgeStyle=orthogonalEdgeStyle;fontSize=12;html=1;endArrow=ERzeroToMany;startArrow=ERmandOne;rounded=0;strokeColor=#A8201A;fontColor=#143642;fillColor=#FAE5C7;" parent="1" source="GHodZ8dbwmzNHnV5Nrv1-17" target="GHodZ8dbwmzNHnV5Nrv1-96" edge="1">
          <mxGeometry width="100" height="100" relative="1" as="geometry">
            <mxPoint x="1215" y="1102.16" as="sourcePoint" />
            <mxPoint x="1280" y="892.16" as="targetPoint" />
          </mxGeometry>
        </mxCell>
        <mxCell id="GHodZ8dbwmzNHnV5Nrv1-107" value="Visibility" style="ellipse;whiteSpace=wrap;html=1;align=center;labelBackgroundColor=none;fillColor=#FAE5C7;strokeColor=#0F8B8D;fontColor=#143642;" parent="1" vertex="1">
          <mxGeometry x="1250" y="770" width="100" height="40" as="geometry" />
        </mxCell>
        <mxCell id="GHodZ8dbwmzNHnV5Nrv1-108" value="Content" style="ellipse;whiteSpace=wrap;html=1;align=center;labelBackgroundColor=none;fillColor=#FAE5C7;strokeColor=#0F8B8D;fontColor=#143642;" parent="1" vertex="1">
          <mxGeometry x="1285" y="832.16" width="100" height="30" as="geometry" />
        </mxCell>
        <mxCell id="GHodZ8dbwmzNHnV5Nrv1-109" value="id" style="ellipse;whiteSpace=wrap;html=1;align=center;fontStyle=4;labelBackgroundColor=none;fillColor=#FAE5C7;strokeColor=#0F8B8D;fontColor=#143642;" parent="1" vertex="1">
          <mxGeometry x="1285" y="882.16" width="100" height="50" as="geometry" />
        </mxCell>
        <mxCell id="GHodZ8dbwmzNHnV5Nrv1-110" value="" style="endArrow=none;html=1;rounded=0;strokeColor=#A8201A;fontColor=#143642;fillColor=#FAE5C7;" parent="1" source="GHodZ8dbwmzNHnV5Nrv1-96" target="GHodZ8dbwmzNHnV5Nrv1-109" edge="1">
          <mxGeometry relative="1" as="geometry">
            <mxPoint x="962" y="1042.16" as="sourcePoint" />
            <mxPoint x="910" y="1085.16" as="targetPoint" />
          </mxGeometry>
        </mxCell>
        <mxCell id="GHodZ8dbwmzNHnV5Nrv1-111" value="" style="endArrow=none;html=1;rounded=0;strokeColor=#A8201A;fontColor=#143642;fillColor=#FAE5C7;" parent="1" source="GHodZ8dbwmzNHnV5Nrv1-96" target="GHodZ8dbwmzNHnV5Nrv1-108" edge="1">
          <mxGeometry relative="1" as="geometry">
            <mxPoint x="1219" y="882.16" as="sourcePoint" />
            <mxPoint x="1299" y="920.16" as="targetPoint" />
          </mxGeometry>
        </mxCell>
        <mxCell id="GHodZ8dbwmzNHnV5Nrv1-112" style="edgeStyle=orthogonalEdgeStyle;rounded=0;orthogonalLoop=1;jettySize=auto;html=1;exitX=0.5;exitY=1;exitDx=0;exitDy=0;strokeColor=#A8201A;fontColor=#143642;fillColor=#FAE5C7;" parent="1" source="GHodZ8dbwmzNHnV5Nrv1-108" target="GHodZ8dbwmzNHnV5Nrv1-108" edge="1">
          <mxGeometry relative="1" as="geometry" />
        </mxCell>
        <mxCell id="GHodZ8dbwmzNHnV5Nrv1-113" value="" style="endArrow=none;html=1;rounded=0;strokeColor=#A8201A;fontColor=#143642;fillColor=#FAE5C7;" parent="1" source="GHodZ8dbwmzNHnV5Nrv1-96" target="GHodZ8dbwmzNHnV5Nrv1-107" edge="1">
          <mxGeometry relative="1" as="geometry">
            <mxPoint x="1219" y="792.16" as="sourcePoint" />
            <mxPoint x="1312.3848647863692" y="709.9972897459621" as="targetPoint" />
          </mxGeometry>
        </mxCell>
        <mxCell id="GHodZ8dbwmzNHnV5Nrv1-114" value="Like" style="shape=associativeEntity;whiteSpace=wrap;html=1;align=center;strokeColor=#0F8B8D;fontColor=#143642;fillColor=#FAE5C7;" parent="1" vertex="1">
          <mxGeometry x="750" y="812.16" width="140" height="60" as="geometry" />
        </mxCell>
        <mxCell id="GHodZ8dbwmzNHnV5Nrv1-115" value="" style="edgeStyle=orthogonalEdgeStyle;fontSize=12;html=1;endArrow=ERzeroToMany;startArrow=ERmandOne;rounded=0;strokeColor=#A8201A;fontColor=#143642;fillColor=#FAE5C7;" parent="1" source="GHodZ8dbwmzNHnV5Nrv1-1" target="GHodZ8dbwmzNHnV5Nrv1-114" edge="1">
          <mxGeometry width="100" height="100" relative="1" as="geometry">
            <mxPoint x="1040" y="550" as="sourcePoint" />
            <mxPoint x="1130" y="680" as="targetPoint" />
            <Array as="points">
              <mxPoint x="810" y="530" />
            </Array>
          </mxGeometry>
        </mxCell>
        <mxCell id="GHodZ8dbwmzNHnV5Nrv1-116" value="" style="edgeStyle=orthogonalEdgeStyle;fontSize=12;html=1;endArrow=ERzeroToMany;startArrow=ERmandOne;rounded=0;strokeColor=#A8201A;fontColor=#143642;fillColor=#FAE5C7;" parent="1" source="GHodZ8dbwmzNHnV5Nrv1-17" target="GHodZ8dbwmzNHnV5Nrv1-114" edge="1">
          <mxGeometry width="100" height="100" relative="1" as="geometry">
            <mxPoint x="925" y="991.66" as="sourcePoint" />
            <mxPoint x="830" y="821.66" as="targetPoint" />
            <Array as="points">
              <mxPoint x="835" y="993.16" />
            </Array>
          </mxGeometry>
        </mxCell>
        <mxCell id="GHodZ8dbwmzNHnV5Nrv1-119" value="Text" style="text;html=1;align=center;verticalAlign=middle;whiteSpace=wrap;rounded=0;fontColor=#143642;" parent="1" vertex="1">
          <mxGeometry x="830" y="580" width="60" height="30" as="geometry" />
        </mxCell>
        <mxCell id="jc99RZeMaBf-rjobbobk-1" value="Group" style="rounded=1;whiteSpace=wrap;html=1;labelBackgroundColor=none;fillColor=#FAE5C7;strokeColor=#0F8B8D;fontColor=#143642;" vertex="1" parent="1">
          <mxGeometry x="1610" y="518" width="140" height="65" as="geometry" />
        </mxCell>
        <mxCell id="jc99RZeMaBf-rjobbobk-3" value="" style="edgeStyle=entityRelationEdgeStyle;fontSize=12;html=1;endArrow=ERzeroToMany;endFill=1;startArrow=ERzeroToMany;rounded=0;" edge="1" parent="1" source="GHodZ8dbwmzNHnV5Nrv1-1" target="jc99RZeMaBf-rjobbobk-1">
          <mxGeometry width="100" height="100" relative="1" as="geometry">
            <mxPoint x="910" y="780" as="sourcePoint" />
            <mxPoint x="1010" y="680" as="targetPoint" />
          </mxGeometry>
        </mxCell>
        <mxCell id="jc99RZeMaBf-rjobbobk-4" value="Name" style="ellipse;whiteSpace=wrap;html=1;align=center;labelBackgroundColor=none;fillColor=#FAE5C7;strokeColor=#0F8B8D;fontColor=#143642;" vertex="1" parent="1">
          <mxGeometry x="1660.94" y="430" width="100" height="40" as="geometry" />
        </mxCell>
        <mxCell id="jc99RZeMaBf-rjobbobk-5" value="id" style="ellipse;whiteSpace=wrap;html=1;align=center;fontStyle=4;labelBackgroundColor=none;fillColor=#FAE5C7;strokeColor=#0F8B8D;fontColor=#143642;" vertex="1" parent="1">
          <mxGeometry x="1560" y="435" width="100" height="50" as="geometry" />
        </mxCell>
        <mxCell id="jc99RZeMaBf-rjobbobk-10" value="" style="endArrow=none;html=1;rounded=0;strokeColor=#A8201A;fontColor=#143642;fillColor=#FAE5C7;" edge="1" parent="1" source="jc99RZeMaBf-rjobbobk-1" target="jc99RZeMaBf-rjobbobk-5">
          <mxGeometry relative="1" as="geometry">
            <mxPoint x="904.94" y="490" as="sourcePoint" />
            <mxPoint x="1380.001909685955" y="430.34333678016833" as="targetPoint" />
          </mxGeometry>
        </mxCell>
        <mxCell id="jc99RZeMaBf-rjobbobk-11" value="" style="endArrow=none;html=1;rounded=0;strokeColor=#A8201A;fontColor=#143642;fillColor=#FAE5C7;" edge="1" parent="1" source="jc99RZeMaBf-rjobbobk-1" target="jc99RZeMaBf-rjobbobk-4">
          <mxGeometry relative="1" as="geometry">
            <mxPoint x="1469.94" y="490" as="sourcePoint" />
            <mxPoint x="1391.94" y="440" as="targetPoint" />
          </mxGeometry>
        </mxCell>
        <mxCell id="jc99RZeMaBf-rjobbobk-14" value="Fanpage" style="rounded=1;whiteSpace=wrap;html=1;labelBackgroundColor=none;fillColor=#FAE5C7;strokeColor=#0F8B8D;fontColor=#143642;" vertex="1" parent="1">
          <mxGeometry x="1780" y="967.1600000000001" width="140" height="65" as="geometry" />
        </mxCell>
        <mxCell id="jc99RZeMaBf-rjobbobk-20" value="" style="edgeStyle=entityRelationEdgeStyle;fontSize=12;html=1;endArrow=ERzeroToMany;endFill=1;startArrow=ERzeroToMany;rounded=0;" edge="1" parent="1" source="GHodZ8dbwmzNHnV5Nrv1-1" target="jc99RZeMaBf-rjobbobk-14">
          <mxGeometry width="100" height="100" relative="1" as="geometry">
            <mxPoint x="1090" y="560" as="sourcePoint" />
            <mxPoint x="1491" y="561" as="targetPoint" />
            <Array as="points">
              <mxPoint x="980" y="570" />
              <mxPoint x="1290" y="680" />
              <mxPoint x="1060" y="703" />
            </Array>
          </mxGeometry>
        </mxCell>
        <mxCell id="jc99RZeMaBf-rjobbobk-23" value="" style="endArrow=none;html=1;rounded=0;strokeColor=#A8201A;fontColor=#143642;fillColor=#FAE5C7;" edge="1" parent="1" source="GHodZ8dbwmzNHnV5Nrv1-17" target="GHodZ8dbwmzNHnV5Nrv1-71">
          <mxGeometry relative="1" as="geometry">
            <mxPoint x="977" y="1042" as="sourcePoint" />
            <mxPoint x="891" y="1171" as="targetPoint" />
          </mxGeometry>
        </mxCell>
        <mxCell id="jc99RZeMaBf-rjobbobk-26" value="Metadata" style="ellipse;whiteSpace=wrap;html=1;align=center;labelBackgroundColor=none;fillColor=#FAE5C7;strokeColor=#0F8B8D;fontColor=#143642;" vertex="1" parent="1">
          <mxGeometry x="1930.94" y="897.16" width="100" height="40" as="geometry" />
        </mxCell>
        <mxCell id="jc99RZeMaBf-rjobbobk-32" value="" style="endArrow=none;html=1;rounded=0;strokeColor=#A8201A;fontColor=#143642;fillColor=#FAE5C7;" edge="1" parent="1" source="jc99RZeMaBf-rjobbobk-26" target="jc99RZeMaBf-rjobbobk-14">
          <mxGeometry relative="1" as="geometry">
            <mxPoint x="1225" y="829" as="sourcePoint" />
            <mxPoint x="1272" y="813" as="targetPoint" />
          </mxGeometry>
        </mxCell>
        <mxCell id="jc99RZeMaBf-rjobbobk-33" value="Name" style="ellipse;whiteSpace=wrap;html=1;align=center;labelBackgroundColor=none;fillColor=#FAE5C7;strokeColor=#0F8B8D;fontColor=#143642;" vertex="1" parent="1">
          <mxGeometry x="1800.94" y="897.16" width="100" height="40" as="geometry" />
        </mxCell>
        <mxCell id="jc99RZeMaBf-rjobbobk-34" value="id" style="ellipse;whiteSpace=wrap;html=1;align=center;fontStyle=4;labelBackgroundColor=none;fillColor=#FAE5C7;strokeColor=#0F8B8D;fontColor=#143642;" vertex="1" parent="1">
          <mxGeometry x="1690" y="882.16" width="100" height="65" as="geometry" />
        </mxCell>
        <mxCell id="jc99RZeMaBf-rjobbobk-35" value="" style="endArrow=none;html=1;rounded=0;strokeColor=#A8201A;fontColor=#143642;fillColor=#FAE5C7;" edge="1" parent="1" source="jc99RZeMaBf-rjobbobk-33" target="jc99RZeMaBf-rjobbobk-14">
          <mxGeometry relative="1" as="geometry">
            <mxPoint x="1521" y="528" as="sourcePoint" />
            <mxPoint x="1416" y="441" as="targetPoint" />
          </mxGeometry>
        </mxCell>
        <mxCell id="jc99RZeMaBf-rjobbobk-36" value="" style="endArrow=none;html=1;rounded=0;strokeColor=#A8201A;fontColor=#143642;fillColor=#FAE5C7;" edge="1" parent="1" source="jc99RZeMaBf-rjobbobk-34" target="jc99RZeMaBf-rjobbobk-14">
          <mxGeometry relative="1" as="geometry">
            <mxPoint x="1536" y="740" as="sourcePoint" />
            <mxPoint x="1551" y="695" as="targetPoint" />
          </mxGeometry>
        </mxCell>
        <mxCell id="jc99RZeMaBf-rjobbobk-38" value="" style="edgeStyle=entityRelationEdgeStyle;fontSize=12;html=1;endArrow=ERoneToMany;rounded=0;entryX=0.493;entryY=0.615;entryDx=0;entryDy=0;entryPerimeter=0;" edge="1" parent="1" source="GHodZ8dbwmzNHnV5Nrv1-17" target="jc99RZeMaBf-rjobbobk-14">
          <mxGeometry width="100" height="100" relative="1" as="geometry">
            <mxPoint x="1250" y="940" as="sourcePoint" />
            <mxPoint x="1350" y="840" as="targetPoint" />
            <Array as="points">
              <mxPoint x="1550" y="1020" />
              <mxPoint x="1539" y="1050" />
              <mxPoint x="1509" y="1030" />
            </Array>
          </mxGeometry>
        </mxCell>
        <mxCell id="jc99RZeMaBf-rjobbobk-39" value="" style="edgeStyle=entityRelationEdgeStyle;fontSize=12;html=1;endArrow=ERmandOne;startArrow=ERmandOne;rounded=0;" edge="1" parent="1" source="GHodZ8dbwmzNHnV5Nrv1-1" target="jc99RZeMaBf-rjobbobk-41">
          <mxGeometry width="100" height="100" relative="1" as="geometry">
            <mxPoint x="1480" y="850" as="sourcePoint" />
            <mxPoint x="1350" y="642.5" as="targetPoint" />
            <Array as="points">
              <mxPoint x="1250" y="710" />
            </Array>
          </mxGeometry>
        </mxCell>
        <mxCell id="jc99RZeMaBf-rjobbobk-40" value="" style="edgeStyle=entityRelationEdgeStyle;fontSize=12;html=1;endArrow=ERmandOne;rounded=0;" edge="1" parent="1" source="jc99RZeMaBf-rjobbobk-1" target="jc99RZeMaBf-rjobbobk-41">
          <mxGeometry width="100" height="100" relative="1" as="geometry">
            <mxPoint x="1480" y="730" as="sourcePoint" />
            <mxPoint x="1490" y="642.5" as="targetPoint" />
            <Array as="points">
              <mxPoint x="1630" y="643" />
              <mxPoint x="1650" y="650" />
            </Array>
          </mxGeometry>
        </mxCell>
        <mxCell id="jc99RZeMaBf-rjobbobk-41" value="Comment" style="shape=associativeEntity;whiteSpace=wrap;html=1;align=center;strokeColor=#0F8B8D;fontColor=#143642;fillColor=#FAE5C7;" vertex="1" parent="1">
          <mxGeometry x="1490" y="630" width="140" height="60" as="geometry" />
        </mxCell>
        <mxCell id="jc99RZeMaBf-rjobbobk-42" value="id" style="ellipse;whiteSpace=wrap;html=1;align=center;fontStyle=4;labelBackgroundColor=none;fillColor=#FAE5C7;strokeColor=#0F8B8D;fontColor=#143642;" vertex="1" parent="1">
          <mxGeometry x="1720" y="730" width="100" height="50" as="geometry" />
        </mxCell>
        <mxCell id="jc99RZeMaBf-rjobbobk-50" value="metadata" style="ellipse;whiteSpace=wrap;html=1;align=center;labelBackgroundColor=none;fillColor=#FAE5C7;strokeColor=#0F8B8D;fontColor=#143642;" vertex="1" parent="1">
          <mxGeometry x="1600" y="740" width="100" height="30" as="geometry" />
        </mxCell>
        <mxCell id="jc99RZeMaBf-rjobbobk-52" value="" style="endArrow=none;html=1;rounded=0;strokeColor=#A8201A;fontColor=#143642;fillColor=#FAE5C7;" edge="1" parent="1" source="jc99RZeMaBf-rjobbobk-41" target="jc99RZeMaBf-rjobbobk-50">
          <mxGeometry relative="1" as="geometry">
            <mxPoint x="1782" y="950" as="sourcePoint" />
            <mxPoint x="1818" y="977" as="targetPoint" />
          </mxGeometry>
        </mxCell>
        <mxCell id="jc99RZeMaBf-rjobbobk-53" value="" style="endArrow=none;html=1;rounded=0;strokeColor=#A8201A;fontColor=#143642;fillColor=#FAE5C7;" edge="1" parent="1" source="jc99RZeMaBf-rjobbobk-41" target="jc99RZeMaBf-rjobbobk-42">
          <mxGeometry relative="1" as="geometry">
            <mxPoint x="1476" y="690" as="sourcePoint" />
            <mxPoint x="1492" y="720" as="targetPoint" />
          </mxGeometry>
        </mxCell>
        <mxCell id="jc99RZeMaBf-rjobbobk-54" value="message" style="ellipse;whiteSpace=wrap;html=1;align=center;labelBackgroundColor=none;fillColor=#FAE5C7;strokeColor=#0F8B8D;fontColor=#143642;" vertex="1" parent="1">
          <mxGeometry x="1480" y="740" width="100" height="30" as="geometry" />
        </mxCell>
        <mxCell id="jc99RZeMaBf-rjobbobk-56" value="" style="endArrow=none;html=1;rounded=0;strokeColor=#A8201A;fontColor=#143642;fillColor=#FAE5C7;" edge="1" parent="1" source="jc99RZeMaBf-rjobbobk-41" target="jc99RZeMaBf-rjobbobk-54">
          <mxGeometry relative="1" as="geometry">
            <mxPoint x="1598" y="700" as="sourcePoint" />
            <mxPoint x="1646" y="751" as="targetPoint" />
          </mxGeometry>
        </mxCell>
        <mxCell id="jc99RZeMaBf-rjobbobk-57" value="Notification" style="rounded=1;whiteSpace=wrap;html=1;labelBackgroundColor=none;fillColor=#FAE5C7;strokeColor=#0F8B8D;fontColor=#143642;" vertex="1" parent="1">
          <mxGeometry x="1370" y="300" width="120" height="60" as="geometry" />
        </mxCell>
        <mxCell id="jc99RZeMaBf-rjobbobk-58" value="id" style="ellipse;whiteSpace=wrap;html=1;align=center;fontStyle=4;labelBackgroundColor=none;fillColor=#FAE5C7;strokeColor=#0F8B8D;fontColor=#143642;" vertex="1" parent="1">
          <mxGeometry x="1480" y="190" width="100" height="50" as="geometry" />
        </mxCell>
        <mxCell id="jc99RZeMaBf-rjobbobk-59" value="metadata" style="ellipse;whiteSpace=wrap;html=1;align=center;labelBackgroundColor=none;fillColor=#FAE5C7;strokeColor=#0F8B8D;fontColor=#143642;" vertex="1" parent="1">
          <mxGeometry x="1360" y="200" width="100" height="30" as="geometry" />
        </mxCell>
        <mxCell id="jc99RZeMaBf-rjobbobk-60" value="message" style="ellipse;whiteSpace=wrap;html=1;align=center;labelBackgroundColor=none;fillColor=#FAE5C7;strokeColor=#0F8B8D;fontColor=#143642;" vertex="1" parent="1">
          <mxGeometry x="1240" y="200" width="100" height="30" as="geometry" />
        </mxCell>
        <mxCell id="jc99RZeMaBf-rjobbobk-61" value="" style="endArrow=none;html=1;rounded=0;strokeColor=#A8201A;fontColor=#143642;fillColor=#FAE5C7;" edge="1" parent="1" source="jc99RZeMaBf-rjobbobk-57" target="jc99RZeMaBf-rjobbobk-60">
          <mxGeometry relative="1" as="geometry">
            <mxPoint x="1240" y="330" as="sourcePoint" />
            <mxPoint x="1111.6666666666665" as="targetPoint" />
          </mxGeometry>
        </mxCell>
        <mxCell id="jc99RZeMaBf-rjobbobk-62" value="" style="endArrow=none;html=1;rounded=0;strokeColor=#A8201A;fontColor=#143642;fillColor=#FAE5C7;" edge="1" parent="1" source="jc99RZeMaBf-rjobbobk-57" target="jc99RZeMaBf-rjobbobk-59">
          <mxGeometry relative="1" as="geometry">
            <mxPoint x="1399" y="320" as="sourcePoint" />
            <mxPoint x="1315" y="239" as="targetPoint" />
          </mxGeometry>
        </mxCell>
        <mxCell id="jc99RZeMaBf-rjobbobk-63" value="" style="endArrow=none;html=1;rounded=0;strokeColor=#A8201A;fontColor=#143642;fillColor=#FAE5C7;" edge="1" parent="1" source="jc99RZeMaBf-rjobbobk-57" target="jc99RZeMaBf-rjobbobk-58">
          <mxGeometry relative="1" as="geometry">
            <mxPoint x="1409" y="330" as="sourcePoint" />
            <mxPoint x="1325" y="249" as="targetPoint" />
          </mxGeometry>
        </mxCell>
        <mxCell id="jc99RZeMaBf-rjobbobk-64" value="" style="edgeStyle=entityRelationEdgeStyle;fontSize=12;html=1;endArrow=ERoneToMany;rounded=0;" edge="1" parent="1" source="GHodZ8dbwmzNHnV5Nrv1-1" target="jc99RZeMaBf-rjobbobk-57">
          <mxGeometry width="100" height="100" relative="1" as="geometry">
            <mxPoint x="1120" y="610" as="sourcePoint" />
            <mxPoint x="1410" y="300" as="targetPoint" />
          </mxGeometry>
        </mxCell>
      </root>
    </mxGraphModel>
  </diagram>
</mxfile>
